<?xml version="1.0" encoding="utf-8"?>
<!-- Generator: Adobe Illustrator 19.2.1, SVG Export Plug-In . SVG Version: 6.00 Build 0)  -->
<svg version="1.1" id="layer" xmlns="http://www.w3.org/2000/svg" xmlns:xlink="http://www.w3.org/1999/xlink" x="0px" y="0px"
	 viewBox="0 0 652 652" style="enable-background:new 0 0 652 652;" xml:space="preserve">
<style type="text/css">
	.st0{fill:#003274;}
	.st1{fill:#FFFFFF;}
</style>
<rect x="70" y="71" class="st0" width="500" height="500"/>
<path class="st1" d="M150.6,467.4c-8.2,0-14.2,3.6-17.4,9.4H133v-32.2h-0.2l0.2-0.2h-17.4v5.8l8.2,0.8l0,0c0,0,0,60-0.2,62.2l0,0
	l-8.2,0.8v5.8h15.8l0.6-8.4h0.2c3.5,6.2,10.1,9.9,17.2,9.6c11.4,0,23-9,23-27.4C172.4,478,163.4,467.4,150.6,467.4z M147.4,513.4
	c-6.6,0-12.4-4.4-14-10.8c-0.2-1.1-0.4-2.3-0.4-3.4v-9c0-1.4,0.2-2.7,0.6-4c1.6-6.5,7.3-11.2,14-11.4c10,0,15.4,8.8,15.4,19
	C163,505.4,157.2,513.4,147.4,513.4L147.4,513.4z"/>
<polygon class="st1" points="196.2,444.6 196.2,444.6 178.6,444.6 178.6,450.2 186.8,451 186.8,513.2 186.8,513.2 178.6,513.8 
	178.6,519.6 204.4,519.6 204.4,513.8 196.2,513.2 "/>
<path class="st1" d="M296.4,467.4c-15,0-24,12-24,27.6s9.4,25.8,25.2,25.8c5.9,0.1,11.8-0.9,17.2-3.2l-1.6-6.6
	c-4.5,2-9.3,2.8-14.2,2.6c-9.4,0-17.4-5.2-17.6-17.8h36c0.2-1.5,0.4-2.9,0.4-4.4C317.6,482,313.2,467.4,296.4,467.4z M308.6,489
	h-27.2c0.8-6.4,4.8-15,14.2-15C306.2,474,308.6,483.2,308.6,489z"/>
<path class="st1" d="M347.2,490c-6.6-2.6-9.6-4.6-9.6-8.8c0-3.8,3-7,8.4-7c3.7-0.1,7.3,1,10.4,3l2.2-6.8c-3.8-2.1-8.1-3.2-12.4-3.2
	c-10.8,0-17.6,6.8-17.6,15c0,6.2,4.4,11.2,13.6,14.4c6.8,2.6,9.4,4.8,9.4,9.4c0,4.4-3.2,7.6-9.8,7.6c-4.4-0.2-8.6-1.4-12.4-3.6
	l-2.2,7c4.4,2.4,9.4,3.6,14.4,3.6c12,0,19-6.4,19-15.4C360.6,497.8,355.8,493.2,347.2,490z"/>
<path class="st1" d="M380.4,448.2c-3.1-0.1-5.7,2.4-5.8,5.5c0,0,0,0.1,0,0.1v0.2c-0.1,3,2.2,5.6,5.2,5.8h0.4
	c3.1,0.1,5.7-2.4,5.8-5.5c0,0,0-0.1,0-0.1C386.1,451,383.6,448.3,380.4,448.2z"/>
<path class="st1" d="M436.8,476.2h-0.2c-3.2-5.8-9.4-9.2-16-8.8c-11.8,0-23.2,9.8-23.2,27c0,14.2,9,25,21.8,25
	c6.6,0.4,12.8-3,16.2-8.6h0.2v5.6c0,13-7,18-16.6,18c-5.3,0-10.5-1.5-15-4.2l-2.4,7.2c5.2,3,11.1,4.4,17,4.2
	c6.8,0.3,13.5-1.9,18.8-6.2c4.8-4.6,7.2-11.6,7.2-23.4v-29.8c0-6.2,0.2-10.4,0.4-14h-8.2L436.8,476.2z M435.6,497.8
	c0,1.7-0.2,3.4-0.8,5c-1.8,5.7-7,9.6-13,9.6c-10,0-15.2-8.4-15.2-18.4c0-11.8,6.4-19.4,15.2-19.4c6.1-0.1,11.5,4.1,13,10
	c0.4,1.4,0.6,2.8,0.6,4.2L435.6,497.8z"/>
<path class="st1" d="M508.8,489.2c0-17.6-11-21.8-18-21.8c-7-0.2-13.6,3.5-17,9.6h-0.2l-0.6-8.4h-16.2v5.8l8.2,0.8
	c0,2.2,0.2,4.6,0.2,7.4v30.8l0,0l-8.2,0.8v5.8h25.8v-5.8l-8.2-0.8l0,0v-24.2c0-1.5,0.2-3,0.6-4.4c1.6-5.5,6.6-9.4,12.4-9.6
	c8.8,0,11.8,6.8,11.8,15.2v23l-8.2,0.8v5.8h25.6v-5.8l-8.2-0.8L508.8,489.2z"/>
<polygon class="st1" points="367.6,468.4 367.6,474.2 375.8,475 375.8,519.6 385.2,519.6 385.2,468.4 "/>
<path class="st1" d="M259.4,513.2v-44.8H242v5.8l8,0.8v24.8c0,1.6-0.2,3.3-0.8,4.8c-2,5-6.8,8.4-12.2,8.6c-8.4,0-11.4-6.6-11.4-16.4
	v-28.2H208v5.8l8.2,0.8v23.4c0,17.8,9.6,22.4,17.6,22.4c7,0.2,13.6-3.5,17-9.6h0.2l0.6,8.4H266V514L259.4,513.2L259.4,513.2z"/>
<path class="st1" d="M521.2,445.8c-6.7,0-12.2,5.5-12.2,12.2c0,6.7,5.5,12.2,12.2,12.2c6.7,0,12.2-5.3,12.2-12c0-0.1,0-0.1,0-0.2
	C533.4,451.3,527.9,445.8,521.2,445.8L521.2,445.8z M521.2,468.2c-5.5,0-10-4.5-10-10s4.5-10,10-10s10,4.5,10,10l0,0
	C531.1,463.7,526.7,468.1,521.2,468.2z M526.2,455.4c0-2.6-1.8-3.8-4.8-3.8h-4.6v13h2.2v-5h2.2l3,5.2h2.4l-3-5.4
	C525.3,458.8,526.3,457.2,526.2,455.4L526.2,455.4z M519,457.4v-4h2.4c1.8,0,2.8,0.4,2.8,2s-1,2-2.8,2H519z"/>
</svg>
